<?xml version="1.0" encoding="UTF-8"?><svg id="_이어_2" xmlns="http://www.w3.org/2000/svg" xmlns:xlink="http://www.w3.org/1999/xlink" viewBox="0 0 107.99 20.85"><defs><style>.cls-1{fill:url(#_제_그라디언트_2);}.cls-2{fill:#fff;}.cls-3{fill:url(#_제_그라디언트_3);}.cls-4{fill:url(#_제_그라디언트_4);}.cls-5{fill:url(#_제_그라디언트_2-2);}</style><linearGradient id="_제_그라디언트_2" x1="0" y1="20" x2="4" y2="20" gradientTransform="translate(0 22) scale(1 -1)" gradientUnits="userSpaceOnUse"><stop offset="0" stop-color="#2581c4"/><stop offset="1" stop-color="#2072ad"/></linearGradient><linearGradient id="_제_그라디언트_2-2" y1="11" y2="11" xlink:href="#_제_그라디언트_2"/><linearGradient id="_제_그라디언트_3" x1="11" y1="12.5" x2="15" y2="12.5" gradientTransform="translate(0 22) scale(1 -1)" gradientUnits="userSpaceOnUse"><stop offset="0" stop-color="#bcd5f0"/><stop offset="1" stop-color="#94b4d6"/></linearGradient><linearGradient id="_제_그라디언트_4" x1="4" y1="12.5" x2="11" y2="12.5" gradientTransform="translate(0 22) scale(1 -1)" gradientUnits="userSpaceOnUse"><stop offset="0" stop-color="#69acdf"/><stop offset="1" stop-color="#4d8fc0"/></linearGradient></defs><g id="_이어_1-2"><g><circle class="cls-1" cx="2" cy="2" r="2"/><rect class="cls-5" y="5" width="4" height="12"/><rect class="cls-3" x="11" y="2" width="4" height="15"/><polygon class="cls-4" points="11 2 11 8 4 17 4 11 11 2"/><path class="cls-2" d="M33.13,7.51c.42,0,.82,.06,1.21,.19,.39,.12,.74,.33,1.04,.6,.31,.28,.55,.64,.73,1.08s.27,.97,.27,1.59v6.09h-2.14v-5.63c0-1.37-.59-2.05-1.78-2.05-.17,0-.37,.03-.6,.08-.23,.05-.45,.15-.66,.31-.21,.15-.39,.37-.53,.65-.15,.28-.22,.66-.22,1.12v5.53h-2.14V7.72h2.02v1.07h.03c.33-.47,.73-.81,1.21-.99,.49-.19,1-.29,1.56-.29Z"/><path class="cls-2" d="M43.63,15.38c.49,0,.87-.06,1.16-.19,.29-.13,.43-.38,.43-.74v-.1c0-.16-.02-.29-.06-.4s-.13-.2-.26-.28c-.14-.08-.33-.15-.59-.22-.25-.07-.6-.15-1.04-.24-.57-.11-1.05-.25-1.45-.4s-.73-.34-.98-.57-.44-.5-.56-.81c-.12-.32-.18-.7-.18-1.14v-.17c0-.32,.06-.63,.19-.94,.13-.31,.34-.59,.63-.84s.66-.45,1.12-.6,1.01-.23,1.67-.23c.54,0,1.12,.05,1.72,.15,.6,.1,1.18,.33,1.72,.7l-.92,1.54c-.32-.21-.67-.37-1.06-.46-.39-.09-.79-.14-1.2-.14-.67,0-1.13,.08-1.37,.23-.25,.15-.37,.35-.37,.6v.1c0,.17,.02,.31,.07,.41,.05,.1,.13,.19,.25,.26,.12,.07,.3,.14,.53,.2,.23,.06,.52,.12,.88,.19,.59,.12,1.1,.25,1.53,.39,.44,.14,.79,.31,1.07,.53,.28,.22,.48,.5,.62,.83s.2,.75,.2,1.25v.19c0,.36-.08,.71-.25,1.03-.16,.33-.4,.62-.72,.86-.32,.25-.71,.45-1.17,.59-.46,.15-.99,.22-1.58,.22-.78,0-1.52-.1-2.21-.31-.7-.2-1.27-.49-1.72-.85l.95-1.63c.42,.28,.86,.51,1.34,.7,.49,.2,1.02,.29,1.61,.29Z"/><path class="cls-2" d="M52.05,4.04h0c.62,0,1.12,.5,1.12,1.12v.07c0,.62-.5,1.12-1.12,1.12h0c-.62,0-1.12-.5-1.12-1.12v-.07c0-.62,.51-1.12,1.12-1.12Zm-1.06,3.68h2.14v9.34h-2.14V7.72Z"/><path class="cls-2" d="M63.14,15.81h-.03c-.25,.45-.61,.77-1.07,.95s-.98,.27-1.54,.27c-1.2,0-2.09-.35-2.69-1.04-.59-.7-.89-1.68-.89-2.94v-1.48c0-.62,.09-1.18,.26-1.69,.18-.5,.43-.93,.75-1.28,.33-.35,.72-.62,1.18-.81s.97-.28,1.53-.28c.36,0,.68,.03,.97,.1,.28,.07,.53,.15,.74,.25,.21,.1,.38,.21,.52,.33,.14,.12,.24,.23,.31,.33h.02v-.8h2.05v9.26c0,1.3-.36,2.27-1.07,2.91s-1.84,.96-3.37,.96c-.59,0-1.17-.1-1.76-.29-.58-.19-1.07-.44-1.45-.73l.97-1.66c.09,.08,.22,.17,.39,.26,.17,.1,.36,.18,.56,.26s.42,.14,.64,.19c.23,.05,.45,.08,.68,.08,.76,0,1.33-.16,1.72-.48s.59-.83,.59-1.52v-1.15h-.01Zm-4.12-3.09c0,.79,.16,1.4,.48,1.84,.32,.44,.79,.65,1.42,.65,.35,0,.66-.06,.94-.18s.51-.28,.7-.49c.19-.21,.33-.45,.43-.73,.1-.28,.15-.57,.15-.89v-1.73c0-.21-.04-.43-.13-.65-.08-.22-.21-.42-.39-.59-.18-.18-.4-.32-.66-.43-.27-.11-.59-.17-.96-.17-.68,0-1.18,.22-1.5,.66s-.48,1.05-.48,1.83v.88Z"/><path class="cls-2" d="M74.3,7.51c.42,0,.82,.06,1.21,.19,.39,.12,.74,.33,1.04,.6,.31,.28,.55,.64,.73,1.08s.27,.97,.27,1.59v6.09h-2.14v-5.63c0-1.37-.59-2.05-1.78-2.05-.17,0-.37,.03-.6,.08-.23,.05-.45,.15-.66,.31s-.39,.37-.53,.65c-.15,.28-.22,.66-.22,1.12v5.53h-2.14V4.24h2.02v4.54h.03c.33-.47,.73-.81,1.21-.99,.49-.18,1.01-.28,1.56-.28Z"/><path class="cls-2" d="M82.31,9.48h-1.49v-1.76h1.49v-2.39h2.14v2.39h2.36v1.76h-2.36v4.92c0,.4,.08,.66,.25,.78,.16,.12,.39,.19,.67,.19,.21,0,.43-.02,.64-.06s.44-.11,.69-.21l.34,1.71c-.19,.09-.46,.18-.79,.26s-.71,.13-1.13,.13c-.53,0-.98-.06-1.34-.19-.36-.12-.65-.31-.86-.54-.21-.24-.37-.53-.46-.87s-.14-.74-.14-1.18v-4.94h-.01Z"/><path class="cls-2" d="M98.03,16.2c-.45,.31-.98,.55-1.59,.73-.61,.18-1.36,.27-2.24,.27-.54,0-1.07-.07-1.58-.21s-.96-.38-1.37-.71c-.4-.33-.72-.78-.97-1.34-.24-.56-.36-1.26-.36-2.09v-.97c0-.76,.11-1.41,.33-1.96s.52-1,.91-1.36c.38-.36,.83-.62,1.35-.79,.51-.17,1.07-.25,1.67-.25s1.13,.08,1.64,.25c.5,.17,.94,.43,1.3,.77,.36,.35,.64,.77,.85,1.29,.2,.51,.31,1.11,.31,1.79v1.54h-6.26c0,.75,.2,1.31,.59,1.69,.4,.38,.97,.57,1.71,.57,.55,0,1.05-.06,1.48-.18s.88-.31,1.36-.59l.87,1.55Zm-1.82-4.65v-.41c0-.25-.04-.49-.11-.71-.07-.23-.2-.42-.36-.59-.17-.17-.38-.31-.64-.41-.26-.1-.58-.15-.95-.15-.71,0-1.25,.19-1.6,.56-.36,.37-.53,.83-.53,1.36v.36h4.19Z"/><path class="cls-2" d="M107.39,9.63c-.16-.07-.33-.12-.51-.15s-.41-.05-.68-.05c-.29,0-.57,.05-.82,.15-.25,.1-.48,.25-.66,.43-.19,.19-.33,.41-.44,.66s-.16,.53-.16,.84v5.55h-2.14V7.72h2.05v1.36h.03c.25-.47,.58-.85,.99-1.14,.41-.28,.95-.42,1.62-.42,.24,0,.48,.02,.71,.05,.24,.03,.44,.08,.61,.14l-.6,1.92Z"/><polygon class="cls-2" points="24.32 6.28 24.32 4.69 19.72 4.69 19.72 6.28 20.91 6.28 20.91 15.48 19.72 15.48 19.72 17.07 24.32 17.07 24.32 15.48 23.09 15.48 23.09 6.28 24.32 6.28"/></g></g></svg>